Coordinates
version=1
nRows=7
nColumns=46
inDegrees=yes

Units are S.I. units (second, meters, Newtons, ...)
Angles are in degrees.

endheader
time	pelvis_tilt	pelvis_list	pelvis_rotation	pelvis_tx	pelvis_ty	pelvis_tz	bb_angle	bb_tx	bb_ty	bb_tz	hip_flexion_r	hip_adduction_r	hip_rotation_r	knee_angle_r	knee_angle_r_beta	ankle_angle_r	subtalar_angle_r	mtp_angle_r	crank_angle_r	hip_flexion_l	hip_adduction_l	hip_rotation_l	knee_angle_l	knee_angle_l_beta	ankle_angle_l	subtalar_angle_l	mtp_angle_l	crank_angle_l	lumbar_extension	lumbar_bending	lumbar_rotation	arm_flex_r	arm_add_r	arm_rot_r	elbow_flex_r	pro_sup_r	wrist_flex_r	wrist_dev_r	arm_flex_l	arm_add_l	arm_rot_l	elbow_flex_l	pro_sup_l	wrist_flex_l	wrist_dev_l
      2.50500000	    -11.21559541	      4.83564422	      1.04796919	      0.09510408	      1.15020974	     -0.20772417	      0.00000000	      0.50000000	      0.00000000	      0.25000000	     56.53203186	    -12.87676338	     -3.88883122	     76.25547870	      1.33090918	     -9.31152461	    -10.84049761	      0.00000000	      0.00000000	     77.13906400	     -7.92242308	     -5.10225769	     83.64014124	      1.45979585	     26.73934989	      4.70461578	      0.00000000	      0.00000000	    -58.73470081	     -5.19219366	     -0.01478283	     89.69002288	     -7.33534000	     20.31686307	     33.94734370	     23.45317463	      0.00000000	      0.00000000	     89.80249207	      4.72903822	     21.00226836	     35.84163796	     19.27748142	      0.00000000	      0.00000000
      2.51000000	    -11.17224702	      4.84845188	      1.07635213	      0.09475028	      1.15137958	     -0.20847563	      0.00000000	      0.50000000	      0.00000000	      0.25000000	     56.85441340	    -13.05974456	     -3.78014256	     77.11460067	      1.34590368	     -9.08715494	    -10.80642552	      0.00000000	      0.00000000	     76.35911677	     -7.56661713	     -5.09233971	     82.24292266	      1.43540979	     26.44442172	      4.80737099	      0.00000000	      0.00000000	    -58.95598356	     -5.13844244	     -0.00839505	     89.68523164	     -7.55249323	     19.96179835	     34.42335365	     24.34083715	      0.00000000	      0.00000000	     89.80268242	      4.87556554	     20.58043405	     36.06486781	     20.28282269	      0.00000000	      0.00000000
      2.51500000	    -11.65019069	      4.52783422	      0.66204540	      0.09509504	      1.15108247	     -0.20905613	      0.00000000	      0.50000000	      0.00000000	      0.25000000	     57.76624146	    -12.58689887	     -3.59470834	     78.01135250	      1.36155496	     -8.74569694	    -10.50745327	      0.00000000	      0.00000000	     76.29105444	     -7.86006609	     -4.90578470	     81.16569955	      1.41660870	     26.05122028	      4.69833703	      0.00000000	      0.00000000	    -58.37042388	     -5.20069045	      0.46951875	     89.69779231	     -8.35884201	     23.12431918	     33.68609589	     25.68419193	      0.00000000	      0.00000000	     89.80082752	      4.59736318	     21.75371312	     35.19967779	     22.44026145	      0.00000000	      0.00000000
      2.52000000	    -11.83029236	      4.37053308	      0.41536103	      0.09492368	      1.15155559	     -0.20970208	      0.00000000	      0.50000000	      0.00000000	      0.25000000	     58.38868848	    -12.39011981	     -3.39626758	     78.89158438	      1.37691790	     -8.47198546	    -10.26516862	      0.00000000	      0.00000000	     75.80292695	     -7.91140834	     -4.82189112	     79.90217717	      1.39455607	     25.69828980	      4.56348956	      0.00000000	      0.00000000	    -58.23928399	     -5.24285438	      0.81455587	     89.69422989	     -8.27989611	     22.05313805	     33.73753666	     26.28585799	      0.00000000	      0.00000000	     89.80132298	      4.98903130	     20.96812827	     35.02230461	     23.02224002	      0.00000000	      0.00000000
      2.52500000	    -11.88854490	      4.29425132	      0.16272885	      0.09490420	      1.15239527	     -0.21022348	      0.00000000	      0.50000000	      0.00000000	      0.25000000	     58.90406972	    -12.26746992	     -3.17895559	     79.78402511	      1.39249393	     -8.31766653	    -10.23927906	      0.00000000	      0.00000000	     75.08599242	     -7.95510405	     -4.83184427	     78.54796045	      1.37092053	     25.37598889	      4.85373693	      0.00000000	      0.00000000	    -58.29835617	     -5.35304477	      1.01339672	     89.69476905	     -8.34673243	     21.49427257	     34.06377636	     26.61493430	      0.00000000	      0.00000000	     89.79931010	      5.37031014	     20.69873655	     34.91393406	     23.41536726	      0.00000000	      0.00000000
      2.53000000	    -12.08122958	      3.99582073	     -0.08895229	      0.09487287	      1.15265520	     -0.21090742	      0.00000000	      0.50000000	      0.00000000	      0.25000000	     59.53042746	    -11.99921812	     -3.11418623	     80.70530539	      1.40857330	     -7.85600905	     -9.75630452	      0.00000000	      0.00000000	     74.62364768	     -8.06552738	     -4.60855938	     77.29073023	      1.34897772	     24.82599074	      4.74367336	      0.00000000	      0.00000000	    -58.06863520	     -5.26840658	      1.42653005	     89.70102580	     -8.84078433	     23.50427222	     34.99996421	     20.94416901	      0.00000000	      0.00000000	     89.79959398	      5.12271263	     22.03143913	     35.86648467	     17.05354317	      0.00000000	      0.00000000
      2.53500000	    -12.21231445	      3.75192588	     -0.29367900	      0.09489503	      1.15313820	     -0.21155548	      0.00000000	      0.50000000	      0.00000000	      0.25000000	     60.08959183	    -11.79510415	     -3.04252620	     81.62468823	      1.42461956	     -7.25667920	     -9.48394305	      0.00000000	      0.00000000	     74.02659596	     -8.10545344	     -4.41077602	     75.96645163	      1.32586470	     24.41721974	      4.71276586	      0.00000000	      0.00000000	    -57.98146003	     -5.20171124	      1.75295302	     89.70249864	     -8.55422333	     22.14274073	     34.77354842	     22.62945252	      0.00000000	      0.00000000	     89.79873266	      5.43196219	     21.10486120	     35.41155413	     19.10461859	      0.00000000	      0.00000000
